<svg viewBox="0 0 32 32" fill="none" xmlns="http://www.w3.org/2000/svg">
  <!-- Outer envelope shape -->
  <path
    d="M4 8C4 6.89543 4.89543 6 6 6H26C27.1046 6 28 6.89543 28 8V24C28 25.1046 27.1046 26 26 26H6C4.89543 26 4 25.1046 4 24V8Z"
    fill="url(#bcc-gradient)"
    fill-opacity="0.15"
    stroke="url(#bcc-gradient)"
    stroke-width="1.5"
  />
  <!-- Envelope flap -->
  <path
    d="M4 9L14.5858 16.5858C15.3668 17.3668 16.6332 17.3668 17.4142 16.5858L28 9"
    stroke="url(#bcc-gradient)"
    stroke-width="1.5"
    stroke-linecap="round"
  />
  <!-- Inner circle -->
  <circle
    cx="16"
    cy="18"
    r="5"
    fill="url(#bcc-gradient)"
    fill-opacity="0.3"
    stroke="url(#bcc-gradient)"
    stroke-width="1.5"
  />
  <!-- B monogram -->
  <path
    d="M14 15.5V20.5M14 18H16.5C17.3284 18 18 17.3284 18 16.5V16.5C18 15.6716 17.3284 15 16.5 15H14M14 18H16.5C17.3284 18 18 18.6716 18 19.5V19.5C18 20.3284 17.3284 21 16.5 21H14"
    stroke="#a855f7"
    stroke-width="1.2"
    stroke-linecap="round"
    stroke-linejoin="round"
  />
  <defs>
    <linearGradient id="bcc-gradient" x1="4" y1="6" x2="28" y2="26" gradientUnits="userSpaceOnUse">
      <stop stop-color="#a855f7" />
      <stop offset="0.5" stop-color="#38bdf8" />
      <stop offset="1" stop-color="#2dd4bf" />
    </linearGradient>
  </defs>
</svg>
